# xmcd CD database file
#
# Track frame offsets:
#	182
#	15370
#	41465
#	61100
#	87092
#	99965
#	118162
#	145560
#	160825
#
# Disc length: 2363 seconds
#
# Revision: 0
# Processed by: cddbd v1.4PL0 Copyright (c) Steve Scherf et al.
# Submitted via: CDex 1.50beta10
#
DISCID=5e093909
DTITLE=Tommy Flanagan - Positive intensity
DYEAR=1976
DGENRE=Jazz
TTITLE0=52nd street theme
TTITLE1=Smooth as the wind
TTITLE2=Passion flower
TTITLE3=Muffin
TTITLE4=Verdandi
TTITLE5=Ruby my dear
TTITLE6=Bess you is my woman now
TTITLE7=Hustle bustle
TTITLE8=Lament
EXTD=YEAR: 1976
EXTT0=
EXTT1=
EXTT2=
EXTT3=
EXTT4=
EXTT5=
EXTT6=
EXTT7=
EXTT8=
PLAYORDER=
